# xmcd
#
# Track frame offsets:
#	150
#	12977
#	28266
#	52083
#	68912
#	87071
#	100187
#	117249
#	135280
#	150854
#	165009
#	182761
#
# Disc length: 2654 seconds
#
# Revision: 1
# Processed by: cddbd v1.4PL0 Copyright (c) Steve Scherf et al.
# Submitted via: audiograbber 1.81.01
#
DISCID=880a5c0c
DTITLE=Harry Belafonte - I Grandi Successi Originali cd2
DYEAR=1900
DGENRE=Pop
TTITLE0=Cocoanut woman
TTITLE1=Judy drowned
TTITLE2=Cotton fields
TTITLE3=When the saints go marching in
TTITLE4=All my trials
TTITLE5=Merci bon dieu
TTITLE6=Steal away
TTITLE7=Swing low
TTITLE8=Try to remember
TTITLE9=Island the sun
TTITLE10=Angelina
TTITLE11=Goin' down Jordan
EXTD=
EXTT0=
EXTT1=
EXTT2=
EXTT3=
EXTT4=
EXTT5=
EXTT6=
EXTT7=
EXTT8=
EXTT9=
EXTT10=
EXTT11=
PLAYORDER=
